<svg width="480" height="432" viewBox="0 0 480 432" fill="none" xmlns="http://www.w3.org/2000/svg">
<path d="M245.384 106.44C227.768 70.392 191.984 48 152 48C94.656 48 48 94.656 48 152C48 187.056 65.528 219.528 94.888 238.872C96.1941 239.733 97.7238 240.192 99.288 240.192L99.616 240.184L101.304 240.088C101.872 240.048 102.456 240 103.04 240H176C178.122 240 180.157 239.157 181.657 237.657C183.157 236.157 184 234.122 184 232V199.04C184 162.816 206.896 130.024 240.968 117.456C242.018 117.07 242.975 116.467 243.777 115.687C244.579 114.908 245.209 113.968 245.625 112.93C246.041 111.891 246.235 110.777 246.193 109.659C246.152 108.541 245.876 107.445 245.384 106.44V106.44Z" fill="#FBB03B"/>
<path d="M152 32C149.878 32 147.843 31.1571 146.343 29.6569C144.843 28.1566 144 26.1217 144 24V8C144 5.87827 144.843 3.84344 146.343 2.34315C147.843 0.842856 149.878 0 152 0C154.122 0 156.157 0.842856 157.657 2.34315C159.157 3.84344 160 5.87827 160 8V24C160 26.1217 159.157 28.1566 157.657 29.6569C156.157 31.1571 154.122 32 152 32Z" fill="#FBB03B"/>
<path d="M242.504 69.496C240.92 69.4995 239.371 69.0324 238.054 68.154C236.736 67.2755 235.709 66.0254 235.103 64.5622C234.497 63.099 234.339 61.4888 234.65 59.9358C234.961 58.3829 235.726 56.9573 236.848 55.84L248.168 44.52C248.911 43.7772 249.793 43.1881 250.763 42.7861C251.734 42.3841 252.774 42.1772 253.824 42.1772C254.874 42.1772 255.915 42.3841 256.885 42.7861C257.856 43.1881 258.737 43.7772 259.48 44.52C260.223 45.2628 260.812 46.1445 261.214 47.115C261.616 48.0855 261.823 49.1256 261.823 50.176C261.823 51.2264 261.616 52.2666 261.214 53.237C260.812 54.2075 260.223 55.0893 259.48 55.832L248.16 67.152C247.418 67.896 246.537 68.4861 245.566 68.8883C244.595 69.2906 243.555 69.4971 242.504 69.496V69.496Z" fill="#FBB03B"/>
<path d="M24 160H8C5.87827 160 3.84344 159.157 2.34315 157.657C0.842854 156.157 0 154.122 0 152C0 149.878 0.842854 147.843 2.34315 146.343C3.84344 144.843 5.87827 144 8 144H24C26.1217 144 28.1566 144.843 29.6569 146.343C31.1571 147.843 32 149.878 32 152C32 154.122 31.1571 156.157 29.6569 157.657C28.1566 159.157 26.1217 160 24 160Z" fill="#FBB03B"/>
<path d="M61.496 69.496C60.4453 69.4971 59.4047 69.2906 58.4341 68.8883C57.4635 68.4861 56.5819 67.896 55.84 67.152L44.52 55.832C43.7772 55.0893 43.188 54.2075 42.7861 53.237C42.3841 52.2666 42.1772 51.2264 42.1772 50.176C42.1772 49.1256 42.3841 48.0855 42.7861 47.115C43.188 46.1445 43.7772 45.2628 44.52 44.52C45.2627 43.7772 46.1445 43.1881 47.115 42.7861C48.0854 42.3841 49.1256 42.1772 50.176 42.1772C51.2264 42.1772 52.2665 42.3841 53.237 42.7861C54.2074 43.1881 55.0892 43.7772 55.832 44.52L67.152 55.84C68.2744 56.9573 69.0395 58.3829 69.3503 59.9358C69.661 61.4888 69.5034 63.099 68.8974 64.5622C68.2914 66.0254 67.2643 67.2755 65.9465 68.154C64.6287 69.0324 63.0797 69.4995 61.496 69.496V69.496Z" fill="#FBB03B"/>
<path d="M376.96 216H376V199.04C376 142.224 329.776 96 272.96 96H271.04C214.224 96 168 142.224 168 199.04V224H103.04C46.224 224 0 270.224 0 327.04V328.96C0 385.776 46.224 432 103.04 432H376.96C433.776 432 480 385.776 480 328.96V319.04C480 262.224 433.776 216 376.96 216Z" fill="#E6E6E6"/>
<path d="M463.976 264.088C463.68 332.024 408.352 387.2 340.352 387.2H18.12C36.712 414.224 67.832 432 103.04 432H376.96C433.776 432 480 385.776 480 328.96V319.04C480 298.832 474.064 280.016 463.976 264.088V264.088Z" fill="#CFCFCF"/>
</svg>
