<svg width="385" height="385" viewBox="0 0 385 385" fill="none" xmlns="http://www.w3.org/2000/svg">
<path d="M377.813 347.52L305.28 275.2C328.682 245.386 341.38 208.569 341.333 170.667C341.333 136.912 331.324 103.915 312.571 75.8493C293.818 47.7834 267.163 25.9086 235.978 12.9912C204.793 0.0738703 170.477 -3.3059 137.371 3.27931C104.265 9.86452 73.8553 26.119 49.9871 49.9871C26.119 73.8553 9.86454 104.265 3.27933 137.371C-3.30588 170.477 0.0738856 204.793 12.9912 235.978C25.9086 267.163 47.7834 293.818 75.8494 312.571C103.915 331.324 136.912 341.333 170.667 341.333C208.569 341.38 245.386 328.682 275.2 305.28L347.52 377.813C349.503 379.813 351.863 381.4 354.462 382.483C357.062 383.566 359.85 384.124 362.667 384.124C365.483 384.124 368.271 383.566 370.871 382.483C373.471 381.4 375.83 379.813 377.813 377.813C379.813 375.83 381.4 373.471 382.483 370.871C383.566 368.271 384.124 365.483 384.124 362.667C384.124 359.85 383.566 357.062 382.483 354.462C381.4 351.863 379.813 349.503 377.813 347.52V347.52ZM42.6667 170.667C42.6667 145.351 50.1738 120.603 64.2386 99.5537C78.3034 78.5042 98.2943 62.0981 121.683 52.4101C145.072 42.7221 170.809 40.1872 195.638 45.1262C220.468 50.0651 243.275 62.2559 261.176 80.157C279.077 98.0581 291.268 120.866 296.207 145.695C301.146 170.525 298.611 196.261 288.923 219.65C279.235 243.039 262.829 263.03 241.78 277.095C220.73 291.16 195.983 298.667 170.667 298.667C136.719 298.667 104.162 285.181 80.157 261.176C56.1524 237.172 42.6667 204.614 42.6667 170.667Z" fill="#00A5D8"/>
</svg>
