<svg width="394" height="394" viewBox="0 0 394 394" fill="none" xmlns="http://www.w3.org/2000/svg">
<path d="M300 285.9C327.978 254.6 343.43 214.082 343.4 172.1C343.4 77.6 266.5 0.799988 172.1 0.799988C77.6 0.799988 0.799988 77.7 0.799988 172.1C0.799988 266.5 77.7 343.4 172.1 343.4C214.082 343.43 254.6 327.978 285.9 300L376.2 390.3C377.128 391.235 378.235 391.974 379.455 392.472C380.675 392.97 381.983 393.218 383.3 393.2C385.953 393.189 388.498 392.15 390.4 390.3C391.327 389.375 392.063 388.276 392.565 387.066C393.067 385.857 393.325 384.56 393.325 383.25C393.325 381.94 393.067 380.643 392.565 379.434C392.063 378.224 391.327 377.125 390.4 376.2L300 285.9ZM20.7 172.1C20.7 88.7 88.6 20.8 172 20.8C255.4 20.8 323.3 88.7 323.3 172.1C323.3 255.5 255.4 323.4 172 323.4C88.6 323.4 20.7 255.5 20.7 172.1Z" fill="#00A5D8"/>
</svg>
