<svg width="436" height="436" viewBox="0 0 436 436" fill="none" xmlns="http://www.w3.org/2000/svg">
<path opacity="0.6" d="M406.239 218.001C406.239 199.512 439.738 176.87 435.183 159.816C430.465 142.17 390.001 139.327 381.062 123.879C371.993 108.211 389.667 71.7664 376.953 59.0496C364.235 46.3315 327.791 64.0045 312.121 54.9395C296.673 46.0013 293.83 5.53408 276.186 0.81728C259.133 -3.73952 236.491 29.7594 218.001 29.7594C199.512 29.7594 176.87 -3.73952 159.819 0.81728C142.17 5.53536 139.33 46.0013 123.88 54.9395C108.212 64.0083 71.7702 46.3315 59.0521 59.0496C46.3353 71.7664 64.0057 108.211 54.9408 123.88C46.0051 139.326 5.53533 142.169 0.818531 159.815C-3.73571 176.868 29.7632 199.51 29.7632 218C29.7632 236.486 -3.73571 259.129 0.818531 276.182C5.53661 293.827 46.0051 296.67 54.9408 312.118C64.0096 327.789 46.3353 364.231 59.0521 376.948C71.7702 389.666 108.212 371.993 123.884 381.058C139.33 389.996 142.17 430.463 159.819 435.18C176.87 439.737 199.513 406.236 218.001 406.236C236.49 406.236 259.133 439.737 276.186 435.18C293.83 430.462 296.673 389.996 312.123 381.058C327.792 371.989 364.236 389.666 376.953 376.948C389.668 364.23 371.998 327.789 381.062 312.116C390 296.67 430.465 293.827 435.183 276.182C439.738 259.13 406.239 236.487 406.239 218.001Z" fill="#FFBE55"/>
<path d="M363.32 218.001C363.32 291.399 308.9 352.089 238.201 361.922C231.601 362.849 224.858 363.317 218.005 363.317C137.747 363.317 72.674 298.256 72.674 218.003C72.674 137.741 137.745 72.6829 218.005 72.6829C224.858 72.6829 231.603 73.1539 238.201 74.0768C308.902 83.9072 363.32 144.598 363.32 218.001Z" fill="#FFBE55"/>
</svg>
